<svg xmlns="http://www.w3.org/2000/svg" viewBox="0 0 512 512">
  <path fill="#A57655" d="M432 269c11-19 12-38 12-48 0-42-31-76-71-82C358 33 271 2 270 1c-2-1-4 0-5 2-1 2-1 4 1 6 9 9 12 17 11 24-3 19-34 35-58 48-6 3-12 6-17 9-11 6-22 12-33 17-38 18-77 37-89 83-4 9-6 20-6 30 0 9 1 27 12 47-38 13-66 50-66 92 0 29 11 99 109 133 45 16 94 19 128 19 174 0 236-78 236-151 0-40-25-75-61-90z"/>
  <path fill="#2B3B47" d="M179 220c13 0 24 11 24 24v37c0 13-11 24-24 24s-24-11-24-24v-37c0-13 11-24 24-24zm165 0c13 0 24 11 24 24v37c0 13-11 24-24 24s-24-11-24-24v-37c0-13 11-24 24-24zM374 360c-3-6-9-9-16-9H163c-6 0-12 3-16 9-3 6-3 13 0 18 12 21 30 38 51 49 17-14 39-13 63-13 24 0 46 0 63 14 21-11 39-27 51-48 4-5 4-12 0-18z"/>
  <path fill="#FF473E" d="M198 426c19 10 40 15 63 15s44-5 63-15c-16-14-38-13-62-13s-46 0-62 13z"/>
</svg>
